<?xml version="1.0" encoding="windows-1252"?>
<!-- Generator: Adobe Illustrator 19.0.0, SVG Export Plug-In . SVG Version: 6.00 Build 0)  -->
<svg version="1.1" id="Capa_1" xmlns="http://www.w3.org/2000/svg" xmlns:xlink="http://www.w3.org/1999/xlink" x="0px" y="0px" viewBox="0 0 58 58" style="enable-background:new 0 0 58 58;" xml:space="preserve">
<g>
	<g>
		<path d="M55.007,12H2.993C1.343,12,0,13.348,0,15.005v0.99C0,17.652,1.343,19,2.993,19H3v11v9.992C3,41.65,4.343,43,5.994,43H6v3    h2v-3h8v3h2v-3h0.006C19.657,43,21,41.65,21,39.992V30V19h16v11v9.992C37,41.65,38.343,43,39.994,43H40v3h2v-3h8v3h2v-3h0.006    C53.657,43,55,41.65,55,39.992V30V19h0.007C56.657,19,58,17.652,58,15.995v-0.99C58,13.348,56.657,12,55.007,12z M19,39.992    C19,40.548,18.554,41,18.006,41H18h-2H8H6H5.994C5.446,41,5,40.548,5,39.992V31h14V39.992z M19,29H5V19h14V29z M53,39.992    C53,40.548,52.554,41,52.006,41H52h-2h-8h-2h-0.006C39.446,41,39,40.548,39,39.992V31h14V39.992z M53,29H39V19h14V29z M56,15.995    C56,16.549,55.555,17,55.007,17H54H38H20H4H2.993C2.445,17,2,16.549,2,15.995v-0.99C2,14.451,2.445,14,2.993,14h52.014    C55.555,14,56,14.451,56,15.005V15.995z"/>
		<rect x="10.664" y="21" width="2" height="2"/>
		<rect x="10.664" y="32.914" width="2" height="2"/>
		<rect x="45" y="21" width="2" height="2"/>
		<rect x="45" y="32.914" width="2" height="2"/>
	</g>
</g>
<g>
</g>
<g>
</g>
<g>
</g>
<g>
</g>
<g>
</g>
<g>
</g>
<g>
</g>
<g>
</g>
<g>
</g>
<g>
</g>
<g>
</g>
<g>
</g>
<g>
</g>
<g>
</g>
<g>
</g>
</svg>